<svg xmlns="http://www.w3.org/2000/svg" viewBox="0.75 12.25 32 32">
  <defs/>

  <!-- cap -->
  <path style="stroke: #333; fill: rgb(0, 169, 100);" d="M 4.566 20.197 C 1.225 25.63 0.224 32.798 4.756 36.185 C 8.673 39.478 25.496 39.232 29.152 36.301 C 33.74 32.184 32.065 24.594 29.206 20.129 C 22.646 11.279 10.405 10.894 4.566 20.197 Z"/>

  <!-- face/trunk -->
  <path style="stroke: #333; fill:white;" d="M 8.051 36.218 C 7.657 40.159 9.024 41.588 11.646 42.734 C 14.628 43.457 19.667 43.341 21.708 42.582 C 25.209 42.107 26.199 39.598 25.664 36.191 C 26.33 33.787 9.171 32.175 8.051 36.218 Z"/>
  <!-- eyes -->
  <ellipse style="fill: rgb(98, 98, 98);" cx="20.005" cy="37.259" rx="0.813" ry="2.04"/>
  <ellipse style="fill: rgb(98, 98, 98);" cx="13.73" cy="37.295" rx="0.813" ry="2.04"/>
  
  <!-- cap spots -->
  <ellipse style="fill:white;" cx="16.836" cy="22.904" rx="6.979" ry="7.16"/>
  <path style="fill:white;" d="M 5.52 20.095 C 4.61 19.042 8.817 21.185 7.476 25.729 C 6.706 28.341 3.008 28.561 2.767 28.443 C 1.316 28.813 4.055 20.601 5.52 20.095 Z"/>
  <path style="fill:white;" d="M 29.139 28.139 C 28.229 29.192 32.436 27.049 31.095 22.505 C 30.325 19.893 26.627 19.673 26.386 19.791 C 24.935 19.421 27.674 27.633 29.139 28.139 Z" transform="matrix(-1, 0, 0, -1, 57.335746, 48.169466)"/>
</svg>