<svg viewBox="0 0 100 100" xmlns="http://www.w3.org/2000/svg">
  <defs></defs>
  <path stroke-width="0" d="M 42.641 -1.333 C 46.388 -1.693 53.725 -1.944 56.334 -1.585 C 58.388 -1.303 63.318 -0.945 65.439 -0.574 C 68.28 -0.08 69.914 -0.027 72.768 0.689 C 74.998 1.248 79.603 1.872 81.589 3.22 C 84.282 5.035 84.6 4.58 87.203 7.897 C 89.921 11.354 91.269 17.008 93.684 20.159 C 95.709 22.794 98.424 23.621 100.288 26.101 C 102.315 28.798 104.245 32.204 105.167 35.962 C 106.187 40.109 106.173 46.341 105.653 50.12 C 105.254 53.042 104.58 54.879 103.237 57.202 C 101.72 59.821 97.782 63.802 96.622 64.912 C 96.147 65.37 93.109 65.493 92.672 66.053 C 91.425 67.634 91.561 70.398 88.66 76.923 C 86.418 81.963 85.481 85.446 82.219 88.681 C 79.669 91.214 73.369 95.781 70.903 97.277 C 68.574 98.692 66.24 99.806 63.741 100.566 C 61.228 101.327 58.695 101.607 55.859 101.828 C 52.735 102.073 49.502 102.218 45.722 101.828 C 41.235 101.365 34.493 100.105 30.568 98.796 C 27.566 97.791 26.251 96.934 23.539 95.254 C 19.971 93.045 16.613 89.078 13.706 86.025 C 11.442 83.651 9.163 80.996 8.025 78.188 C 6.726 74.981 4.753 69.326 3.922 67.568 C 3.543 66.773 3.225 66.825 2.803 66.429 C 2.326 65.987 1.959 65.946 1.181 65.04 C -0.502 63.075 -5.659 56.1 -7.203 52.903 C -8.24 50.749 -8.392 49.558 -8.624 47.594 C -8.881 45.393 -8.837 42.785 -8.481 40.26 C -8.102 37.571 -7.53 34.494 -6.292 31.917 C -5.036 29.304 -2.508 26.366 -0.957 24.711 C 0.147 23.534 3.551 22.888 4.057 21.045 C 6.812 11.05 9.058 10.906 12.048 7.77 C 14.101 5.608 15.244 5.121 17.701 3.725 C 20.957 1.871 23.237 1.39 27.915 -0.071 C 32.946 -1.638 37.965 -0.885 42.641 -1.333 Z" style="stroke-width: 2px; fill: rgb(137, 6, 6);">
    <title>bg</title>
  </path>
  <path d="M 92.597 42.511 C 91.967 75.154 82.379 99.067 48.539 98.501 C 14.696 97.934 4.307 75.154 4.939 42.511 C 5.57 9.87 8.025 1.151 48.442 1.151 C 88.856 1.151 93.227 9.87 92.597 42.511 Z" style="fill: rgb(151, 110, 68);">
    <title>head</title>
  </path>
  <g transform="matrix(1.403271, 0, -0.027016, 1.399715, -20.204304, -26.486803)" style="">
    <title>ears</title>
    <ellipse style="fill: rgb(151, 110, 68);" cx="20.464" cy="49.611" rx="9.399" ry="14.361"></ellipse>
    <ellipse style="fill: rgb(151, 110, 68);" cx="80.338" cy="50.117" rx="9.399" ry="14.361"></ellipse>
  </g>
  <g transform="matrix(1.403271, 0, -0.027016, 1.399715, -23.265728, -25.475409)" style="">
    <title>eyes</title>
    <ellipse style="" cx="39.148" cy="37.731" rx="6.406" ry="6.508"></ellipse>
    <ellipse style="" cx="62.027" cy="37.058" rx="6.406" ry="6.508"></ellipse>
    <ellipse style="fill: rgb(132, 127, 127);" cx="36.346" cy="38.462" rx="2.227" ry="2.07"></ellipse>
    <ellipse style="fill: rgb(132, 127, 127);" cx="58.804" cy="37.581" rx="2.227" ry="2.07"></ellipse>
  </g>
  <rect x="51.293" y="68.573" width="57.251" height="61.191" rx="15.529" ry="15.529" style="fill: rgb(237, 205, 180);" transform="matrix(1, 0, -0.0193, 1, -28.706093, -35.953751)">
    <title>face</title>
  </rect>
  <g transform="matrix(1.403271, 0, -0.027016, 1.399715, -20.55052, -21.682667)" style="">
    <title>nose</title>
    <ellipse style="" cx="46.665" cy="45.386" rx="2.227" ry="2.07"></ellipse>
    <ellipse style="" cx="53.201" cy="45.803" rx="2.227" ry="2.07"></ellipse>
  </g>
  <path d="M 55.53 80.082 C 53.646 77.626 55.437 76.915 48.968 80.137 C 42.501 83.357 44.321 82.682 46.206 85.14 C 48.096 87.595 51.714 88.455 54.284 87.06 C 56.859 85.662 57.417 82.537 55.53 80.082 Z" style="transform-origin: 52.607px 83.569px;">
    <title>mouth</title>
  </path>
  <path style="" d="M 5.391 31.807 C 5.391 31.807 -2.226 33.434 -2.192 43.693 C -2.159 53.758 5.892 58.357 5.892 58.357"></path>
  <path style="transform-origin: 94.771px 43.438px;" d="M 91.087 56.615 C 91.087 56.615 98.745 55.211 99.009 44.95 C 99.272 34.884 91.365 30.048 91.365 30.048"></path>
</svg>