<?xml version="1.0" standalone="no"?>
<!DOCTYPE svg PUBLIC "-//W3C//DTD SVG 20010904//EN"
 "http://www.w3.org/TR/2001/REC-SVG-20010904/DTD/svg10.dtd">
<svg version="1.0" xmlns="http://www.w3.org/2000/svg"
 width="128.000000pt" height="128.000000pt" viewBox="0 0 128.000000 128.000000"
 preserveAspectRatio="xMidYMid meet">

<g transform="translate(0.000000,128.000000) scale(0.100000,-0.100000)"
fill="#000000" stroke="none">
<path d="M365 1131 c-65 -30 -136 -122 -135 -173 1 -7 10 9 20 36 35 90 95
135 195 146 l60 7 -50 1 c-30 1 -66 -6 -90 -17z"/>
<path d="M803 1143 c15 -2 39 -2 55 0 15 2 2 4 -28 4 -30 0 -43 -2 -27 -4z"/>
<path d="M900 1130 c8 -5 20 -10 25 -10 6 0 3 5 -5 10 -8 5 -19 10 -25 10 -5
0 -3 -5 5 -10z"/>
<path d="M560 1116 c0 -2 8 -10 18 -17 15 -13 16 -12 3 4 -13 16 -21 21 -21
13z"/>
<path d="M958 1101 c13 -11 32 -30 43 -43 l20 -23 -16 27 c-9 15 -28 34 -43
43 l-27 16 23 -20z"/>
<path d="M679 1083 l-24 -28 28 24 c15 14 27 26 27 28 0 8 -8 1 -31 -24z"/>
<path d="M615 1060 c10 -11 20 -20 23 -20 3 0 -3 9 -13 20 -10 11 -20 20 -23
20 -3 0 3 -9 13 -20z"/>
<path d="M1031 1000 c15 -45 24 -54 15 -15 -4 17 -12 34 -17 40 -5 5 -4 -6 2
-25z"/>
<path d="M424 996 c-49 -22 -74 -61 -74 -118 0 -43 4 -54 34 -84 39 -39 89
-45 136 -18 31 19 60 63 59 91 0 10 -5 4 -10 -14 -14 -47 -62 -83 -111 -83
-122 0 -136 181 -16 223 24 9 36 16 28 16 -8 0 -29 -6 -46 -13z"/>
<path d="M773 995 c-41 -18 -73 -69 -72 -115 l2 -35 6 41 c10 59 34 90 83 107
24 9 36 16 28 16 -8 0 -30 -6 -47 -14z"/>
<path d="M521 977 c19 -13 39 -38 46 -57 10 -28 12 -30 12 -11 1 24 -57 91
-79 91 -7 0 2 -10 21 -23z"/>
<path d="M855 991 c32 -14 53 -43 64 -90 11 -51 1 -87 -32 -115 l-22 -18 25
14 c37 23 56 79 41 127 -12 43 -55 91 -80 90 -12 0 -11 -2 4 -8z"/>
<path d="M1052 930 c0 -14 2 -19 5 -12 2 6 2 18 0 25 -3 6 -5 1 -5 -13z"/>
<path d="M222 915 c0 -16 2 -22 5 -12 2 9 2 23 0 30 -3 6 -5 -1 -5 -18z"/>
<path d="M1060 881 c0 -6 4 -13 10 -16 6 -3 7 1 4 9 -7 18 -14 21 -14 7z"/>
<path d="M160 844 c-54 -31 -79 -52 -92 -79 -5 -11 3 -5 19 12 15 18 53 46 83
63 30 16 51 30 45 30 -5 0 -30 -12 -55 -26z"/>
<path d="M1135 834 c6 -5 26 -23 45 -39 l35 -30 -25 28 c-14 16 -34 33 -45 39
-11 6 -15 6 -10 2z"/>
<path d="M742 795 c15 -16 29 -27 31 -24 3 2 -10 15 -27 28 l-31 24 27 -28z"/>
<path d="M808 763 c12 -2 30 -2 40 0 9 3 -1 5 -23 4 -22 0 -30 -2 -17 -4z"/>
<path d="M204 726 c-45 -45 -48 -108 -8 -155 14 -17 30 -31 34 -31 5 0 -5 13
-21 29 -41 41 -37 103 8 155 29 33 87 35 129 5 l29 -21 -28 26 c-43 39 -99 36
-143 -8z"/>
<path d="M940 739 l-25 -21 27 16 c39 23 93 21 119 -5 35 -35 50 -81 38 -123
-11 -38 -33 -56 -89 -67 -34 -7 -34 -7 -5 -8 100 -4 147 122 75 199 -23 25
-36 30 -72 30 -29 0 -51 -7 -68 -21z"/>
<path d="M1221 738 c6 -12 15 -33 20 -47 5 -17 8 -20 8 -8 1 18 -25 77 -35 77
-2 0 1 -10 7 -22z"/>
<path d="M595 731 c-33 -14 -70 -58 -105 -123 -18 -34 -50 -80 -70 -103 -64
-70 -71 -94 -44 -152 16 -32 76 -83 99 -83 5 0 -9 11 -31 25 -42 25 -74 75
-74 114 0 12 16 38 35 60 19 21 59 78 88 127 107 178 186 179 293 4 29 -47 68
-104 88 -127 61 -71 39 -144 -57 -188 -28 -14 -45 -25 -37 -25 28 0 94 45 117
79 36 53 30 91 -23 153 -25 29 -65 88 -90 130 -24 43 -55 85 -69 94 -29 19
-92 27 -120 15z"/>
<path d="M905 699 c-4 -6 -5 -12 -2 -15 2 -3 7 2 10 11 7 17 1 20 -8 4z"/>
<path d="M377 658 c5 -39 2 -49 -24 -78 -19 -21 -43 -35 -69 -40 -32 -6 -34
-8 -11 -9 39 -1 84 24 102 59 17 32 19 78 6 99 -5 8 -7 -3 -4 -31z"/>
<path d="M33 645 c0 -27 2 -38 4 -22 2 15 2 37 0 50 -2 12 -4 0 -4 -28z"/>
<path d="M891 644 c0 -11 3 -14 6 -6 3 7 2 16 -1 19 -3 4 -6 -2 -5 -13z"/>
<path d="M1241 604 c0 -11 3 -14 6 -6 3 7 2 16 -1 19 -3 4 -6 -2 -5 -13z"/>
<path d="M40 587 c0 -18 30 -64 62 -92 l33 -30 -31 35 c-18 19 -39 49 -47 65
-9 17 -16 26 -17 22z"/>
<path d="M932 565 c15 -16 29 -27 31 -24 3 2 -10 15 -27 28 l-31 24 27 -28z"/>
<path d="M1226 563 c-6 -14 -5 -15 5 -6 7 7 10 15 7 18 -3 3 -9 -2 -12 -12z"/>
<path d="M1181 506 c-19 -19 -47 -40 -63 -47 -16 -6 -27 -14 -24 -16 8 -8 61
25 95 61 19 20 33 36 30 36 -3 0 -20 -15 -38 -34z"/>
<path d="M154 456 c11 -9 24 -16 30 -16 12 0 7 5 -24 19 -24 11 -24 11 -6 -3z"/>
<path d="M1041 414 c0 -11 3 -14 6 -6 3 7 2 16 -1 19 -3 4 -6 -2 -5 -13z"/>
<path d="M242 380 c0 -19 2 -27 5 -17 2 9 2 25 0 35 -3 9 -5 1 -5 -18z"/>
<path d="M1032 360 c0 -14 2 -19 5 -12 2 6 2 18 0 25 -3 6 -5 1 -5 -13z"/>
<path d="M250 334 c0 -11 38 -74 45 -74 2 0 -5 17 -17 38 -27 46 -28 48 -28
36z"/>
<path d="M1011 303 c-10 -26 -10 -27 4 -9 8 11 15 23 15 28 0 15 -7 8 -19 -19z"/>
<path d="M974 248 l-19 -23 23 19 c21 18 27 26 19 26 -2 0 -12 -10 -23 -22z"/>
<path d="M528 253 c6 -2 18 -2 25 0 6 3 1 5 -13 5 -14 0 -19 -2 -12 -5z"/>
<path d="M728 253 c6 -2 18 -2 25 0 6 3 1 5 -13 5 -14 0 -19 -2 -12 -5z"/>
<path d="M603 243 c20 -2 54 -2 75 0 20 2 3 4 -38 4 -41 0 -58 -2 -37 -4z"/>
<path d="M320 236 c0 -2 8 -10 18 -17 15 -13 16 -12 3 4 -13 16 -21 21 -21 13z"/>
<path d="M905 204 c-22 -13 -35 -24 -30 -24 12 0 75 38 75 45 0 6 2 7 -45 -21z"/>
<path d="M458 163 c7 -3 16 -2 19 1 4 3 -2 6 -13 5 -11 0 -14 -3 -6 -6z"/>
<path d="M503 153 c9 -2 23 -2 30 0 6 3 -1 5 -18 5 -16 0 -22 -2 -12 -5z"/>
<path d="M753 153 c9 -2 23 -2 30 0 6 3 -1 5 -18 5 -16 0 -22 -2 -12 -5z"/>
<path d="M608 143 c23 -2 59 -2 80 0 20 2 1 4 -43 4 -44 0 -61 -2 -37 -4z"/>
</g>
</svg>
